<svg width="98" height="35" viewBox="0 0 98 35" fill="none" xmlns="http://www.w3.org/2000/svg">
<path d="M11.2334 34.0938V15.4756L11.9219 12.1504H16.1992V34.0938H11.2334ZM1.50684 20.2217V19.9141C1.50684 18.7129 1.63867 17.6191 1.90234 16.6328C2.16602 15.6367 2.55664 14.7871 3.07422 14.084C3.5918 13.3711 4.23145 12.8242 4.99316 12.4434C5.76465 12.0527 6.65332 11.8574 7.65918 11.8574C8.60645 11.8574 9.41699 12.0625 10.0908 12.4727C10.7744 12.8828 11.3457 13.459 11.8047 14.2012C12.2637 14.9336 12.6348 15.793 12.918 16.7793C13.2109 17.7656 13.4404 18.8301 13.6064 19.9727V20.3389C13.4404 21.4131 13.2109 22.4287 12.918 23.3857C12.6348 24.3428 12.2637 25.1924 11.8047 25.9346C11.3457 26.667 10.7744 27.2432 10.0908 27.6631C9.40723 28.083 8.58691 28.293 7.62988 28.293C6.63379 28.293 5.75488 28.0928 4.99316 27.6924C4.23145 27.2822 3.5918 26.7158 3.07422 25.9932C2.55664 25.2607 2.16602 24.4062 1.90234 23.4297C1.63867 22.4434 1.50684 21.374 1.50684 20.2217ZM6.44336 19.9141V20.2217C6.44336 20.8174 6.48242 21.374 6.56055 21.8916C6.63867 22.3994 6.77051 22.8486 6.95605 23.2393C7.15137 23.6299 7.40527 23.9375 7.71777 24.1621C8.03027 24.377 8.4209 24.4844 8.88965 24.4844C9.60254 24.4844 10.1641 24.3281 10.5742 24.0156C10.9844 23.7031 11.2725 23.2686 11.4385 22.7119C11.6045 22.1455 11.6729 21.4863 11.6436 20.7344V19.5771C11.6533 18.9326 11.6143 18.3662 11.5264 17.8779C11.4385 17.3896 11.2871 16.9844 11.0723 16.6621C10.8672 16.3301 10.5889 16.0811 10.2373 15.915C9.88574 15.749 9.44629 15.666 8.91895 15.666C8.45996 15.666 8.06934 15.7734 7.74707 15.9883C7.43457 16.1934 7.18066 16.4863 6.98535 16.8672C6.7998 17.248 6.66309 17.6973 6.5752 18.2148C6.4873 18.7324 6.44336 19.2988 6.44336 19.9141ZM28.2549 24.1475V12.1504H33.2061V28H28.5771L28.2549 24.1475ZM28.7236 20.9248L30.0127 20.8955C30.0127 21.96 29.8857 22.9463 29.6318 23.8545C29.3779 24.7529 29.002 25.5342 28.5039 26.1982C28.0156 26.8623 27.4102 27.3799 26.6875 27.751C25.9746 28.1123 25.1494 28.293 24.2119 28.293C23.4307 28.293 22.7129 28.1855 22.0586 27.9707C21.4141 27.7461 20.8574 27.3994 20.3887 26.9307C19.9199 26.4521 19.5537 25.8418 19.29 25.0996C19.0361 24.3477 18.9092 23.4492 18.9092 22.4043V12.1504H23.8457V22.4336C23.8457 22.7852 23.8896 23.0879 23.9775 23.3418C24.0654 23.5957 24.1924 23.8105 24.3584 23.9863C24.5244 24.1523 24.7295 24.2793 24.9736 24.3672C25.2275 24.4453 25.5156 24.4844 25.8379 24.4844C26.5801 24.4844 27.1611 24.3281 27.5811 24.0156C28.001 23.7031 28.2939 23.2783 28.46 22.7412C28.6357 22.2041 28.7236 21.5986 28.7236 20.9248ZM41.1455 12.1504V28H36.1943V12.1504H41.1455ZM35.9014 8.06348C35.9014 7.36035 36.1553 6.78418 36.6631 6.33496C37.1709 5.88574 37.8301 5.66113 38.6406 5.66113C39.4512 5.66113 40.1104 5.88574 40.6182 6.33496C41.126 6.78418 41.3799 7.36035 41.3799 8.06348C41.3799 8.7666 41.126 9.34277 40.6182 9.79199C40.1104 10.2412 39.4512 10.4658 38.6406 10.4658C37.8301 10.4658 37.1709 10.2412 36.6631 9.79199C36.1553 9.34277 35.9014 8.7666 35.9014 8.06348ZM57.2295 24.1914V28H44.9541V24.1914H57.2295ZM57.083 14.8164L47.166 28H43.7822V25.2461L53.6846 12.1504H57.083V14.8164ZM55.457 12.1504V15.959H44.0752V12.1504H55.457Z" fill="white"/>
<path fill-rule="evenodd" clip-rule="evenodd" d="M76.75 34H89.7949C89.6394 33.8364 89.5045 33.6831 89.39 33.54L83.33 25.32L77.21 33.54L76.75 34ZM97.9341 29.8136C97.9775 29.5488 98 29.2771 98 29V9C98 8.3957 97.8928 7.81644 97.6964 7.2802L89.57 18.48L97.9341 29.8136ZM89.4197 4H77.7454C77.8476 4.11182 77.9291 4.21848 77.99 4.32L83.57 12.06L89.09 4.38C89.1856 4.26047 89.2955 4.13381 89.4197 4ZM68.6207 6.58526C68.2251 7.30111 68 8.12426 68 9V29C68 29.5351 68.084 30.0505 68.2397 30.5338L77.03 18.48L68.6207 6.58526Z" fill="white"/>
<path d="M11.2334 34.0938V15.4756L11.9219 12.1504H16.1992V34.0938H11.2334ZM1.50684 20.2217V19.9141C1.50684 18.7129 1.63867 17.6191 1.90234 16.6328C2.16602 15.6367 2.55664 14.7871 3.07422 14.084C3.5918 13.3711 4.23145 12.8242 4.99316 12.4434C5.76465 12.0527 6.65332 11.8574 7.65918 11.8574C8.60645 11.8574 9.41699 12.0625 10.0908 12.4727C10.7744 12.8828 11.3457 13.459 11.8047 14.2012C12.2637 14.9336 12.6348 15.793 12.918 16.7793C13.2109 17.7656 13.4404 18.8301 13.6064 19.9727V20.3389C13.4404 21.4131 13.2109 22.4287 12.918 23.3857C12.6348 24.3428 12.2637 25.1924 11.8047 25.9346C11.3457 26.667 10.7744 27.2432 10.0908 27.6631C9.40723 28.083 8.58691 28.293 7.62988 28.293C6.63379 28.293 5.75488 28.0928 4.99316 27.6924C4.23145 27.2822 3.5918 26.7158 3.07422 25.9932C2.55664 25.2607 2.16602 24.4062 1.90234 23.4297C1.63867 22.4434 1.50684 21.374 1.50684 20.2217ZM6.44336 19.9141V20.2217C6.44336 20.8174 6.48242 21.374 6.56055 21.8916C6.63867 22.3994 6.77051 22.8486 6.95605 23.2393C7.15137 23.6299 7.40527 23.9375 7.71777 24.1621C8.03027 24.377 8.4209 24.4844 8.88965 24.4844C9.60254 24.4844 10.1641 24.3281 10.5742 24.0156C10.9844 23.7031 11.2725 23.2686 11.4385 22.7119C11.6045 22.1455 11.6729 21.4863 11.6436 20.7344V19.5771C11.6533 18.9326 11.6143 18.3662 11.5264 17.8779C11.4385 17.3896 11.2871 16.9844 11.0723 16.6621C10.8672 16.3301 10.5889 16.0811 10.2373 15.915C9.88574 15.749 9.44629 15.666 8.91895 15.666C8.45996 15.666 8.06934 15.7734 7.74707 15.9883C7.43457 16.1934 7.18066 16.4863 6.98535 16.8672C6.7998 17.248 6.66309 17.6973 6.5752 18.2148C6.4873 18.7324 6.44336 19.2988 6.44336 19.9141ZM28.2549 24.1475V12.1504H33.2061V28H28.5771L28.2549 24.1475ZM28.7236 20.9248L30.0127 20.8955C30.0127 21.96 29.8857 22.9463 29.6318 23.8545C29.3779 24.7529 29.002 25.5342 28.5039 26.1982C28.0156 26.8623 27.4102 27.3799 26.6875 27.751C25.9746 28.1123 25.1494 28.293 24.2119 28.293C23.4307 28.293 22.7129 28.1855 22.0586 27.9707C21.4141 27.7461 20.8574 27.3994 20.3887 26.9307C19.9199 26.4521 19.5537 25.8418 19.29 25.0996C19.0361 24.3477 18.9092 23.4492 18.9092 22.4043V12.1504H23.8457V22.4336C23.8457 22.7852 23.8896 23.0879 23.9775 23.3418C24.0654 23.5957 24.1924 23.8105 24.3584 23.9863C24.5244 24.1523 24.7295 24.2793 24.9736 24.3672C25.2275 24.4453 25.5156 24.4844 25.8379 24.4844C26.5801 24.4844 27.1611 24.3281 27.5811 24.0156C28.001 23.7031 28.2939 23.2783 28.46 22.7412C28.6357 22.2041 28.7236 21.5986 28.7236 20.9248ZM41.1455 12.1504V28H36.1943V12.1504H41.1455ZM35.9014 8.06348C35.9014 7.36035 36.1553 6.78418 36.6631 6.33496C37.1709 5.88574 37.8301 5.66113 38.6406 5.66113C39.4512 5.66113 40.1104 5.88574 40.6182 6.33496C41.126 6.78418 41.3799 7.36035 41.3799 8.06348C41.3799 8.7666 41.126 9.34277 40.6182 9.79199C40.1104 10.2412 39.4512 10.4658 38.6406 10.4658C37.8301 10.4658 37.1709 10.2412 36.6631 9.79199C36.1553 9.34277 35.9014 8.7666 35.9014 8.06348ZM57.2295 24.1914V28H44.9541V24.1914H57.2295ZM57.083 14.8164L47.166 28H43.7822V25.2461L53.6846 12.1504H57.083V14.8164ZM55.457 12.1504V15.959H44.0752V12.1504H55.457Z" fill="#28ABC7"/>
<path fill-rule="evenodd" clip-rule="evenodd" d="M76.75 34H89.7949C89.6394 33.8364 89.5045 33.6831 89.39 33.54L83.33 25.32L77.21 33.54L76.75 34ZM97.9341 29.8136C97.9775 29.5488 98 29.2771 98 29V9C98 8.3957 97.8928 7.81644 97.6964 7.2802L89.57 18.48L97.9341 29.8136ZM89.4197 4H77.7454C77.8476 4.11182 77.9291 4.21848 77.99 4.32L83.57 12.06L89.09 4.38C89.1856 4.26047 89.2955 4.13381 89.4197 4ZM68.6207 6.58526C68.2251 7.30111 68 8.12426 68 9V29C68 29.5351 68.084 30.0505 68.2397 30.5338L77.03 18.48L68.6207 6.58526Z" fill="#28ABC7"/>
</svg>
